<svg width="20" height="19" viewBox="0 0 20 19" fill="none" xmlns="http://www.w3.org/2000/svg">
<path d="M11.5386 4.77215V12.4157C11.5386 12.5865 11.5971 12.73 11.7139 12.8462C11.8307 12.9625 11.9728 13.0207 12.1401 13.0207C12.3075 13.0207 12.4486 12.9625 12.5634 12.8462C12.6782 12.73 12.7356 12.5865 12.7356 12.4157V4.3209C12.7356 4.1154 12.6627 3.93974 12.5169 3.7939C12.3711 3.64807 12.1954 3.57515 11.9899 3.57515H10.1184C9.94756 3.57515 9.80397 3.6339 9.68764 3.7514C9.57131 3.8689 9.51314 4.00849 9.51314 4.17015C9.51314 4.34182 9.57131 4.48507 9.68764 4.5999C9.80397 4.71474 9.94756 4.77215 10.1184 4.77215H11.5386ZM5.26814 15.9874C4.85797 15.9874 4.50464 15.8391 4.20814 15.5424C3.91147 15.2459 3.76314 14.8926 3.76314 14.4824V2.12365C3.76314 1.71349 3.91147 1.36015 4.20814 1.06365C4.50464 0.766985 4.85797 0.618652 5.26814 0.618652H17.6269C18.0371 0.618652 18.3904 0.766985 18.6869 1.06365C18.9834 1.36015 19.1316 1.71349 19.1316 2.12365V14.4824C19.1316 14.8926 18.9834 15.2459 18.6869 15.5424C18.3904 15.8391 18.0371 15.9874 17.6269 15.9874H5.26814ZM5.26814 14.7902H17.6269C17.7039 14.7902 17.7744 14.7582 17.8384 14.6942C17.9026 14.63 17.9346 14.5594 17.9346 14.4824V2.12365C17.9346 2.04665 17.9026 1.97607 17.8384 1.9119C17.7744 1.8479 17.7039 1.8159 17.6269 1.8159H5.26814C5.19114 1.8159 5.12056 1.8479 5.05639 1.9119C4.99239 1.97607 4.96039 2.04665 4.96039 2.12365V14.4824C4.96039 14.5594 4.99239 14.63 5.05639 14.6942C5.12056 14.7582 5.19114 14.7902 5.26814 14.7902ZM2.37389 18.8814C1.96372 18.8814 1.61039 18.7332 1.31389 18.4367C1.01739 18.1402 0.869141 17.7868 0.869141 17.3767V4.41265C0.869141 4.25182 0.927557 4.11299 1.04439 3.99615C1.16122 3.87915 1.30331 3.82065 1.47064 3.82065C1.63797 3.82065 1.77906 3.87915 1.89389 3.99615C2.00872 4.11299 2.06614 4.25182 2.06614 4.41265V17.3767C2.06614 17.4537 2.09822 17.5242 2.16239 17.5882C2.22639 17.6523 2.29689 17.6844 2.37389 17.6844H15.3379C15.4986 17.6844 15.6374 17.7432 15.7544 17.8607C15.8714 17.9782 15.9299 18.1177 15.9299 18.2794C15.9299 18.4511 15.8714 18.5943 15.7544 18.7092C15.6374 18.824 15.4986 18.8814 15.3379 18.8814H2.37389Z" fill="#979CA6"/>
</svg>
