<svg width="72" height="72" viewBox="0 0 72 72" fill="none" xmlns="http://www.w3.org/2000/svg">
<rect width="72" height="72" rx="8" fill="#17212B"/>
<mask id="mask0_3323_17840" style="mask-type:alpha" maskUnits="userSpaceOnUse" x="16" y="16" width="40" height="40">
<rect x="16" y="16" width="40" height="40" fill="#D9D9D9"/>
</mask>
<g mask="url(#mask0_3323_17840)">
<path d="M24.3333 51C23.4167 51 22.6319 50.6736 21.9792 50.0208C21.3264 49.3681 21 48.5833 21 47.6667V24.3333C21 23.4167 21.3264 22.6319 21.9792 21.9792C22.6319 21.3264 23.4167 21 24.3333 21H47.6667C48.5833 21 49.3681 21.3264 50.0208 21.9792C50.6736 22.6319 51 23.4167 51 24.3333V47.6667C51 48.5833 50.6736 49.3681 50.0208 50.0208C49.3681 50.6736 48.5833 51 47.6667 51H24.3333ZM26 44.3333H46L39.75 36L34.75 42.6667L31 37.6667L26 44.3333ZM30.1667 32.6667C30.8611 32.6667 31.4514 32.4236 31.9375 31.9375C32.4236 31.4514 32.6667 30.8611 32.6667 30.1667C32.6667 29.4722 32.4236 28.8819 31.9375 28.3958C31.4514 27.9097 30.8611 27.6667 30.1667 27.6667C29.4722 27.6667 28.8819 27.9097 28.3958 28.3958C27.9097 28.8819 27.6667 29.4722 27.6667 30.1667C27.6667 30.8611 27.9097 31.4514 28.3958 31.9375C28.8819 32.4236 29.4722 32.6667 30.1667 32.6667Z" fill="#242F3D"/>
</g>
</svg>
