<svg width="26" height="26" viewBox="0 0 26 26" fill="none" xmlns="http://www.w3.org/2000/svg">
<path d="M11.2665 17.3879L17.1359 13.6282C17.3634 13.4807 17.4772 13.2709 17.4772 12.9989C17.4772 12.7269 17.365 12.5131 17.1405 12.3575L11.2665 8.61188C11.0145 8.44121 10.7567 8.42899 10.4932 8.57521C10.2296 8.72143 10.0979 8.94388 10.0979 9.24255V16.7455C10.0979 17.052 10.2296 17.2783 10.4932 17.4245C10.7567 17.5708 11.0145 17.5585 11.2665 17.3879ZM13.0052 25.5085C11.2841 25.5085 9.66297 25.179 8.14186 24.5199C6.62074 23.8608 5.29452 22.9652 4.16319 21.8332C3.03208 20.7014 2.13752 19.3768 1.47952 17.8592C0.821299 16.3419 0.492188 14.7235 0.492188 13.0042C0.492188 11.274 0.821743 9.64688 1.48085 8.12288C2.13997 6.59888 3.03552 5.2731 4.16752 4.14554C5.2993 3.01821 6.62397 2.12732 8.14152 1.47288C9.65886 0.818434 11.2772 0.491211 12.9965 0.491211C14.7267 0.491211 16.3539 0.819767 17.8779 1.47688C19.4021 2.13421 20.7279 3.0261 21.8552 4.15255C22.9825 5.27899 23.8734 6.60232 24.5279 8.12254C25.1823 9.64277 25.5095 11.2671 25.5095 12.9955C25.5095 14.7167 25.1817 16.3378 24.5262 17.8589C23.8709 19.38 22.9791 20.7062 21.8509 21.8375C20.7226 22.9687 19.3984 23.8632 17.8782 24.5212C16.358 25.1794 14.7336 25.5085 13.0052 25.5085ZM12.9999 23.9122C16.0305 23.9122 18.6071 22.8491 20.7295 20.7229C22.852 18.5967 23.9132 16.0227 23.9132 13.0009C23.9132 9.97021 22.8523 7.39366 20.7305 5.27121C18.609 3.14877 16.0327 2.08754 13.0019 2.08754C9.9803 2.08754 7.40608 3.14843 5.27919 5.27021C3.15208 7.39177 2.08852 9.96799 2.08852 12.9989C2.08852 16.0204 3.15163 18.5947 5.27785 20.7215C7.40408 22.8487 9.97808 23.9122 12.9999 23.9122Z" fill="white"/>
</svg>
