<svg width="21" height="22" viewBox="0 0 21 22" fill="none" xmlns="http://www.w3.org/2000/svg">
<path d="M9.00961 19.1556L3.27394 21.609C2.59372 21.8941 1.95483 21.8413 1.35727 21.4506C0.759715 21.06 0.460938 20.496 0.460938 19.7586V2.72697C0.460938 2.18652 0.658604 1.71752 1.05394 1.31996C1.44927 0.922409 1.92038 0.723633 2.46727 0.723633H10.0639C10.2777 0.723633 10.4627 0.803522 10.6189 0.9633C10.7749 1.12286 10.8529 1.30885 10.8529 1.5213C10.8529 1.7473 10.7749 1.93685 10.6189 2.08997C10.4627 2.24308 10.2777 2.31963 10.0639 2.31963H2.46727C2.3646 2.31963 2.2706 2.36241 2.18527 2.44797C2.09972 2.5333 2.05694 2.6273 2.05694 2.72997V19.7426C2.05694 19.8937 2.11894 20.0105 2.24294 20.093C2.36672 20.1756 2.49705 20.1871 2.63394 20.1273L9.00094 17.4016L15.3679 20.1273C15.5048 20.1871 15.6352 20.1756 15.7589 20.093C15.8829 20.0105 15.9449 19.8937 15.9449 19.7426V11.03C15.9449 10.8215 16.023 10.6379 16.1793 10.479C16.3353 10.3201 16.5247 10.2406 16.7476 10.2406C16.9703 10.2406 17.1582 10.3201 17.3113 10.479C17.4644 10.6379 17.5409 10.8215 17.5409 11.03V19.7586C17.5409 20.496 17.2422 21.06 16.6446 21.4506C16.047 21.8413 15.4139 21.8941 14.7453 21.609L9.00961 19.1556ZM9.00094 2.31963H2.05694H10.8529H9.00094ZM15.9449 5.14863H13.9226C13.6953 5.14863 13.504 5.07063 13.3489 4.91463C13.1936 4.75841 13.1159 4.56897 13.1159 4.3463C13.1159 4.12919 13.1936 3.94263 13.3489 3.78663C13.504 3.63063 13.6953 3.55263 13.9226 3.55263H15.9449V1.51297C15.9449 1.30452 16.023 1.12085 16.1793 0.961965C16.3353 0.803076 16.5247 0.723633 16.7476 0.723633C16.9703 0.723633 17.1582 0.803076 17.3113 0.961965C17.4644 1.12085 17.5409 1.30452 17.5409 1.51297V3.55263H19.5809C19.7947 3.55263 19.9797 3.63252 20.1359 3.7923C20.2922 3.95208 20.3703 4.13819 20.3703 4.35063C20.3703 4.57641 20.2922 4.76585 20.1359 4.91897C19.9797 5.07208 19.7947 5.14863 19.5809 5.14863H17.5409V7.17097C17.5409 7.3983 17.4625 7.58963 17.3056 7.74497C17.1485 7.90008 16.9624 7.97763 16.7473 7.97763C16.5186 7.97763 16.3277 7.90008 16.1746 7.74497C16.0215 7.58963 15.9449 7.3983 15.9449 7.17097V5.14863Z" fill="white"/>
</svg>
